<svg width="35" height="35" viewBox="0 0 35 35" fill="none" xmlns="http://www.w3.org/2000/svg">
<g clip-path="url(#clip0_38_615)">
<path d="M34.9833 17.8274C34.9833 16.3935 34.8642 15.3471 34.6065 14.262H17.8486V20.734H27.6851C27.4869 22.3424 26.416 24.7646 24.0361 26.3923L24.0028 26.6089L29.3013 30.6197L29.6684 30.6555C33.0397 27.6131 34.9833 23.1369 34.9833 17.8274Z" fill="#4285F4"/>
<path d="M17.8486 34.8798C22.6677 34.8798 26.7133 33.3295 29.6684 30.6555L24.0361 26.3923C22.5289 27.4193 20.506 28.1363 17.8486 28.1363C13.1287 28.1363 9.12269 25.0941 7.69467 20.8892L7.48535 20.9065L1.97586 25.0727L1.90381 25.2684C4.83889 30.9654 10.8678 34.8798 17.8486 34.8798Z" fill="#34A853"/>
<path d="M7.69467 20.8891C7.31787 19.8039 7.0998 18.6412 7.0998 17.4398C7.0998 16.2384 7.31787 15.0757 7.67484 13.9906L7.66486 13.7595L2.08633 9.52637L1.90381 9.6112C0.694121 11.9753 0 14.6301 0 17.4398C0 20.2496 0.694121 22.9042 1.90381 25.2684L7.69467 20.8891Z" fill="#FBBC05"/>
<path d="M17.8486 6.74338C21.2002 6.74338 23.4609 8.15794 24.7501 9.34006L29.7873 4.53437C26.6937 1.72462 22.6677 0 17.8486 0C10.8678 0 4.83889 3.91426 1.90381 9.61124L7.67484 13.9907C9.1227 9.78571 13.1287 6.74338 17.8486 6.74338Z" fill="#EB4335"/>
</g>
<defs>
<clipPath id="clip0_38_615">
<rect width="35" height="35" fill="white"/>
</clipPath>
</defs>
</svg>
