<svg width="249" height="234" viewBox="0 0 249 234" fill="none" xmlns="http://www.w3.org/2000/svg">
<rect width="188.519" height="2.35649" transform="matrix(0.72873 -0.68483 0.72873 0.68483 0 129.104)" fill="url(#paint0_linear_38_636)"/>
<rect width="188.519" height="2.35649" transform="matrix(0.72873 -0.68483 0.72873 0.68483 3.43482 132.33)" fill="url(#paint1_linear_38_636)"/>
<rect width="188.519" height="2.35649" transform="matrix(0.72873 -0.68483 0.72873 0.68483 6.86934 135.556)" fill="url(#paint2_linear_38_636)"/>
<rect width="188.519" height="2.35649" transform="matrix(0.72873 -0.68483 0.72873 0.68483 10.3034 138.785)" fill="url(#paint3_linear_38_636)"/>
<rect width="188.519" height="2.35649" transform="matrix(0.72873 -0.68483 0.72873 0.68483 13.7374 142.012)" fill="url(#paint4_linear_38_636)"/>
<rect width="188.519" height="2.35649" transform="matrix(0.72873 -0.68483 0.72873 0.68483 17.1719 145.241)" fill="url(#paint5_linear_38_636)"/>
<rect width="188.519" height="2.35649" transform="matrix(0.72873 -0.68483 0.72873 0.68483 20.6071 148.468)" fill="url(#paint6_linear_38_636)"/>
<rect width="188.519" height="2.35649" transform="matrix(0.72873 -0.68483 0.72873 0.68483 24.041 151.696)" fill="url(#paint7_linear_38_636)"/>
<rect width="188.519" height="2.35649" transform="matrix(0.72873 -0.68483 0.72873 0.68483 27.4756 154.923)" fill="url(#paint8_linear_38_636)"/>
<rect width="188.519" height="2.35649" transform="matrix(0.72873 -0.68483 0.72873 0.68483 30.9096 158.15)" fill="url(#paint9_linear_38_636)"/>
<rect width="188.519" height="2.35649" transform="matrix(0.72873 -0.68483 0.72873 0.68483 34.3447 161.379)" fill="url(#paint10_linear_38_636)"/>
<rect width="188.519" height="2.35649" transform="matrix(0.72873 -0.68483 0.72873 0.68483 37.7793 164.606)" fill="url(#paint11_linear_38_636)"/>
<rect width="188.519" height="2.35649" transform="matrix(0.72873 -0.68483 0.72873 0.68483 41.2138 167.834)" fill="url(#paint12_linear_38_636)"/>
<rect width="188.519" height="2.35649" transform="matrix(0.72873 -0.68483 0.72873 0.68483 44.6483 171.061)" fill="url(#paint13_linear_38_636)"/>
<rect width="188.519" height="2.35649" transform="matrix(0.72873 -0.68483 0.72873 0.68483 48.083 174.29)" fill="url(#paint14_linear_38_636)"/>
<rect width="188.519" height="2.35649" transform="matrix(0.72873 -0.68483 0.72873 0.68483 51.518 177.515)" fill="url(#paint15_linear_38_636)"/>
<rect width="188.519" height="2.35649" transform="matrix(0.72873 -0.68483 0.72873 0.68483 54.9521 180.744)" fill="url(#paint16_linear_38_636)"/>
<rect width="188.519" height="2.35649" transform="matrix(0.72873 -0.68483 0.72873 0.68483 58.3866 183.973)" fill="url(#paint17_linear_38_636)"/>
<rect width="188.519" height="2.35649" transform="matrix(0.72873 -0.68483 0.72873 0.68483 61.8211 187.2)" fill="url(#paint18_linear_38_636)"/>
<rect width="188.519" height="2.35649" transform="matrix(0.72873 -0.68483 0.72873 0.68483 65.2552 190.428)" fill="url(#paint19_linear_38_636)"/>
<rect width="188.519" height="2.35649" transform="matrix(0.72873 -0.68483 0.72873 0.68483 68.6892 193.654)" fill="url(#paint20_linear_38_636)"/>
<rect width="188.519" height="2.35649" transform="matrix(0.72873 -0.68483 0.72873 0.68483 72.1238 196.881)" fill="url(#paint21_linear_38_636)"/>
<rect width="188.519" height="2.35649" transform="matrix(0.72873 -0.68483 0.72873 0.68483 75.5583 200.111)" fill="url(#paint22_linear_38_636)"/>
<rect width="188.519" height="2.35649" transform="matrix(0.72873 -0.68483 0.72873 0.68483 78.9934 203.338)" fill="url(#paint23_linear_38_636)"/>
<rect width="188.519" height="2.35649" transform="matrix(0.72873 -0.68483 0.72873 0.68483 82.4274 206.565)" fill="url(#paint24_linear_38_636)"/>
<rect width="188.519" height="2.35649" transform="matrix(0.72873 -0.68483 0.72873 0.68483 85.862 209.792)" fill="url(#paint25_linear_38_636)"/>
<rect width="188.519" height="2.35649" transform="matrix(0.72873 -0.68483 0.72873 0.68483 89.2959 213.019)" fill="url(#paint26_linear_38_636)"/>
<rect width="188.519" height="2.35649" transform="matrix(0.72873 -0.68483 0.72873 0.68483 92.7311 216.248)" fill="url(#paint27_linear_38_636)"/>
<rect width="188.519" height="2.35649" transform="matrix(0.72873 -0.68483 0.72873 0.68483 96.1656 219.476)" fill="url(#paint28_linear_38_636)"/>
<rect width="188.519" height="2.35649" transform="matrix(0.72873 -0.68483 0.72873 0.68483 99.5992 222.703)" fill="url(#paint29_linear_38_636)"/>
<rect width="188.519" height="2.35649" transform="matrix(0.72873 -0.68483 0.72873 0.68483 103.034 225.932)" fill="url(#paint30_linear_38_636)"/>
<rect width="188.519" height="2.35649" transform="matrix(0.72873 -0.68483 0.72873 0.68483 106.469 229.157)" fill="url(#paint31_linear_38_636)"/>
<rect width="188.519" height="2.35649" transform="matrix(0.72873 -0.68483 0.72873 0.68483 109.903 232.386)" fill="url(#paint32_linear_38_636)"/>
<defs>
<linearGradient id="paint0_linear_38_636" x1="5.89122" y1="0.0181268" x2="5.99578" y2="5.65948" gradientUnits="userSpaceOnUse">
<stop stop-color="#3F72AF"/>
<stop offset="1" stop-color="white" stop-opacity="0"/>
</linearGradient>
<linearGradient id="paint1_linear_38_636" x1="5.89122" y1="0.0181268" x2="5.99578" y2="5.65948" gradientUnits="userSpaceOnUse">
<stop stop-color="#3F72AF"/>
<stop offset="1" stop-color="white" stop-opacity="0"/>
</linearGradient>
<linearGradient id="paint2_linear_38_636" x1="5.89122" y1="0.0181268" x2="5.99578" y2="5.65948" gradientUnits="userSpaceOnUse">
<stop stop-color="#3F72AF"/>
<stop offset="1" stop-color="white" stop-opacity="0"/>
</linearGradient>
<linearGradient id="paint3_linear_38_636" x1="5.89122" y1="0.0181268" x2="5.99578" y2="5.65948" gradientUnits="userSpaceOnUse">
<stop stop-color="#3F72AF"/>
<stop offset="1" stop-color="white" stop-opacity="0"/>
</linearGradient>
<linearGradient id="paint4_linear_38_636" x1="5.89122" y1="0.0181268" x2="5.99578" y2="5.65948" gradientUnits="userSpaceOnUse">
<stop stop-color="#3F72AF"/>
<stop offset="1" stop-color="white" stop-opacity="0"/>
</linearGradient>
<linearGradient id="paint5_linear_38_636" x1="5.89122" y1="0.0181268" x2="5.99578" y2="5.65948" gradientUnits="userSpaceOnUse">
<stop stop-color="#3F72AF"/>
<stop offset="1" stop-color="white" stop-opacity="0"/>
</linearGradient>
<linearGradient id="paint6_linear_38_636" x1="5.89122" y1="0.0181268" x2="5.99578" y2="5.65948" gradientUnits="userSpaceOnUse">
<stop stop-color="#3F72AF"/>
<stop offset="1" stop-color="white" stop-opacity="0"/>
</linearGradient>
<linearGradient id="paint7_linear_38_636" x1="5.89122" y1="0.0181268" x2="5.99578" y2="5.65948" gradientUnits="userSpaceOnUse">
<stop stop-color="#3F72AF"/>
<stop offset="1" stop-color="white" stop-opacity="0"/>
</linearGradient>
<linearGradient id="paint8_linear_38_636" x1="5.89122" y1="0.0181268" x2="5.99578" y2="5.65948" gradientUnits="userSpaceOnUse">
<stop stop-color="#3F72AF"/>
<stop offset="1" stop-color="white" stop-opacity="0"/>
</linearGradient>
<linearGradient id="paint9_linear_38_636" x1="5.89122" y1="0.0181268" x2="5.99578" y2="5.65948" gradientUnits="userSpaceOnUse">
<stop stop-color="#3F72AF"/>
<stop offset="1" stop-color="white" stop-opacity="0"/>
</linearGradient>
<linearGradient id="paint10_linear_38_636" x1="5.89122" y1="0.0181268" x2="5.99578" y2="5.65948" gradientUnits="userSpaceOnUse">
<stop stop-color="#3F72AF"/>
<stop offset="1" stop-color="white" stop-opacity="0"/>
</linearGradient>
<linearGradient id="paint11_linear_38_636" x1="5.89122" y1="0.0181268" x2="5.99578" y2="5.65948" gradientUnits="userSpaceOnUse">
<stop stop-color="#3F72AF"/>
<stop offset="1" stop-color="white" stop-opacity="0"/>
</linearGradient>
<linearGradient id="paint12_linear_38_636" x1="5.89122" y1="0.0181268" x2="5.99578" y2="5.65948" gradientUnits="userSpaceOnUse">
<stop stop-color="#3F72AF"/>
<stop offset="1" stop-color="white" stop-opacity="0"/>
</linearGradient>
<linearGradient id="paint13_linear_38_636" x1="5.89122" y1="0.0181268" x2="5.99578" y2="5.65948" gradientUnits="userSpaceOnUse">
<stop stop-color="#3F72AF"/>
<stop offset="1" stop-color="white" stop-opacity="0"/>
</linearGradient>
<linearGradient id="paint14_linear_38_636" x1="5.89122" y1="0.0181268" x2="5.99578" y2="5.65948" gradientUnits="userSpaceOnUse">
<stop stop-color="#3F72AF"/>
<stop offset="1" stop-color="white" stop-opacity="0"/>
</linearGradient>
<linearGradient id="paint15_linear_38_636" x1="5.89122" y1="0.0181268" x2="5.99578" y2="5.65948" gradientUnits="userSpaceOnUse">
<stop stop-color="#3F72AF"/>
<stop offset="1" stop-color="white" stop-opacity="0"/>
</linearGradient>
<linearGradient id="paint16_linear_38_636" x1="5.89122" y1="0.0181268" x2="5.99578" y2="5.65948" gradientUnits="userSpaceOnUse">
<stop stop-color="#3F72AF"/>
<stop offset="1" stop-color="white" stop-opacity="0"/>
</linearGradient>
<linearGradient id="paint17_linear_38_636" x1="5.89122" y1="0.0181268" x2="5.99578" y2="5.65948" gradientUnits="userSpaceOnUse">
<stop stop-color="#3F72AF"/>
<stop offset="1" stop-color="white" stop-opacity="0"/>
</linearGradient>
<linearGradient id="paint18_linear_38_636" x1="5.89122" y1="0.0181268" x2="5.99578" y2="5.65948" gradientUnits="userSpaceOnUse">
<stop stop-color="#3F72AF"/>
<stop offset="1" stop-color="white" stop-opacity="0"/>
</linearGradient>
<linearGradient id="paint19_linear_38_636" x1="5.89122" y1="0.0181268" x2="5.99578" y2="5.65948" gradientUnits="userSpaceOnUse">
<stop stop-color="#3F72AF"/>
<stop offset="1" stop-color="white" stop-opacity="0"/>
</linearGradient>
<linearGradient id="paint20_linear_38_636" x1="5.89122" y1="0.0181268" x2="5.99578" y2="5.65948" gradientUnits="userSpaceOnUse">
<stop stop-color="#3F72AF"/>
<stop offset="1" stop-color="white" stop-opacity="0"/>
</linearGradient>
<linearGradient id="paint21_linear_38_636" x1="5.89122" y1="0.0181268" x2="5.99578" y2="5.65948" gradientUnits="userSpaceOnUse">
<stop stop-color="#3F72AF"/>
<stop offset="1" stop-color="white" stop-opacity="0"/>
</linearGradient>
<linearGradient id="paint22_linear_38_636" x1="5.89122" y1="0.0181268" x2="5.99578" y2="5.65948" gradientUnits="userSpaceOnUse">
<stop stop-color="#3F72AF"/>
<stop offset="1" stop-color="white" stop-opacity="0"/>
</linearGradient>
<linearGradient id="paint23_linear_38_636" x1="5.89122" y1="0.0181268" x2="5.99578" y2="5.65948" gradientUnits="userSpaceOnUse">
<stop stop-color="#3F72AF"/>
<stop offset="1" stop-color="white" stop-opacity="0"/>
</linearGradient>
<linearGradient id="paint24_linear_38_636" x1="5.89122" y1="0.0181268" x2="5.99578" y2="5.65948" gradientUnits="userSpaceOnUse">
<stop stop-color="#3F72AF"/>
<stop offset="1" stop-color="white" stop-opacity="0"/>
</linearGradient>
<linearGradient id="paint25_linear_38_636" x1="5.89122" y1="0.0181268" x2="5.99578" y2="5.65948" gradientUnits="userSpaceOnUse">
<stop stop-color="#3F72AF"/>
<stop offset="1" stop-color="white" stop-opacity="0"/>
</linearGradient>
<linearGradient id="paint26_linear_38_636" x1="5.89122" y1="0.0181268" x2="5.99578" y2="5.65948" gradientUnits="userSpaceOnUse">
<stop stop-color="#3F72AF"/>
<stop offset="1" stop-color="white" stop-opacity="0"/>
</linearGradient>
<linearGradient id="paint27_linear_38_636" x1="5.89122" y1="0.0181268" x2="5.99578" y2="5.65948" gradientUnits="userSpaceOnUse">
<stop stop-color="#3F72AF"/>
<stop offset="1" stop-color="white" stop-opacity="0"/>
</linearGradient>
<linearGradient id="paint28_linear_38_636" x1="5.89122" y1="0.0181268" x2="5.99578" y2="5.65948" gradientUnits="userSpaceOnUse">
<stop stop-color="#3F72AF"/>
<stop offset="1" stop-color="white" stop-opacity="0"/>
</linearGradient>
<linearGradient id="paint29_linear_38_636" x1="5.89122" y1="0.0181268" x2="5.99578" y2="5.65948" gradientUnits="userSpaceOnUse">
<stop stop-color="#3F72AF"/>
<stop offset="1" stop-color="white" stop-opacity="0"/>
</linearGradient>
<linearGradient id="paint30_linear_38_636" x1="5.89122" y1="0.0181268" x2="5.99578" y2="5.65948" gradientUnits="userSpaceOnUse">
<stop stop-color="#3F72AF"/>
<stop offset="1" stop-color="white" stop-opacity="0"/>
</linearGradient>
<linearGradient id="paint31_linear_38_636" x1="5.89122" y1="0.0181268" x2="5.99578" y2="5.65948" gradientUnits="userSpaceOnUse">
<stop stop-color="#3F72AF"/>
<stop offset="1" stop-color="white" stop-opacity="0"/>
</linearGradient>
<linearGradient id="paint32_linear_38_636" x1="5.89122" y1="0.0181268" x2="5.99578" y2="5.65948" gradientUnits="userSpaceOnUse">
<stop stop-color="#3F72AF"/>
<stop offset="1" stop-color="white" stop-opacity="0"/>
</linearGradient>
</defs>
</svg>
