<svg width="249" height="234" viewBox="0 0 249 234" fill="none" xmlns="http://www.w3.org/2000/svg">
<rect width="188.519" height="2.35649" transform="matrix(-0.728724 -0.684825 0.728724 -0.684825 137.378 234)" fill="url(#paint0_linear_38_670)"/>
<rect width="188.519" height="2.35649" transform="matrix(-0.728724 -0.684825 0.728724 -0.684825 140.813 230.772)" fill="url(#paint1_linear_38_670)"/>
<rect width="188.519" height="2.35649" transform="matrix(-0.728724 -0.684825 0.728724 -0.684825 144.247 227.544)" fill="url(#paint2_linear_38_670)"/>
<rect width="188.519" height="2.35649" transform="matrix(-0.728724 -0.684825 0.728724 -0.684825 147.682 224.315)" fill="url(#paint3_linear_38_670)"/>
<rect width="188.519" height="2.35649" transform="matrix(-0.728724 -0.684825 0.728724 -0.684825 151.116 221.088)" fill="url(#paint4_linear_38_670)"/>
<rect width="188.519" height="2.35649" transform="matrix(-0.728724 -0.684825 0.728724 -0.684825 154.549 217.861)" fill="url(#paint5_linear_38_670)"/>
<rect width="188.519" height="2.35649" transform="matrix(-0.728724 -0.684825 0.728724 -0.684825 157.985 214.634)" fill="url(#paint6_linear_38_670)"/>
<rect width="188.519" height="2.35649" transform="matrix(-0.728724 -0.684825 0.728724 -0.684825 161.419 211.406)" fill="url(#paint7_linear_38_670)"/>
<rect width="188.519" height="2.35649" transform="matrix(-0.728724 -0.684825 0.728724 -0.684825 164.853 208.178)" fill="url(#paint8_linear_38_670)"/>
<rect width="188.519" height="2.35649" transform="matrix(-0.728724 -0.684825 0.728724 -0.684825 168.289 204.95)" fill="url(#paint9_linear_38_670)"/>
<rect width="188.519" height="2.35649" transform="matrix(-0.728724 -0.684825 0.728724 -0.684825 171.722 201.723)" fill="url(#paint10_linear_38_670)"/>
<rect width="188.519" height="2.35649" transform="matrix(-0.728724 -0.684825 0.728724 -0.684825 175.157 198.496)" fill="url(#paint11_linear_38_670)"/>
<rect width="188.519" height="2.35649" transform="matrix(-0.728724 -0.684825 0.728724 -0.684825 178.592 195.269)" fill="url(#paint12_linear_38_670)"/>
<rect width="188.519" height="2.35649" transform="matrix(-0.728724 -0.684825 0.728724 -0.684825 182.027 192.038)" fill="url(#paint13_linear_38_670)"/>
<rect width="188.519" height="2.35649" transform="matrix(-0.728724 -0.684825 0.728724 -0.684825 185.461 188.812)" fill="url(#paint14_linear_38_670)"/>
<rect width="188.519" height="2.35649" transform="matrix(-0.728724 -0.684825 0.728724 -0.684825 188.895 185.586)" fill="url(#paint15_linear_38_670)"/>
<rect width="188.519" height="2.35649" transform="matrix(-0.728724 -0.684825 0.728724 -0.684825 192.33 182.359)" fill="url(#paint16_linear_38_670)"/>
<rect width="188.519" height="2.35649" transform="matrix(-0.728724 -0.684825 0.728724 -0.684825 195.764 179.129)" fill="url(#paint17_linear_38_670)"/>
<rect width="188.519" height="2.35649" transform="matrix(-0.728724 -0.684825 0.728724 -0.684825 199.198 175.9)" fill="url(#paint18_linear_38_670)"/>
<rect width="188.519" height="2.35649" transform="matrix(-0.728724 -0.684825 0.728724 -0.684825 202.632 172.677)" fill="url(#paint19_linear_38_670)"/>
<rect width="188.519" height="2.35649" transform="matrix(-0.728724 -0.684825 0.728724 -0.684825 206.066 169.448)" fill="url(#paint20_linear_38_670)"/>
<rect width="188.519" height="2.35649" transform="matrix(-0.728724 -0.684825 0.728724 -0.684825 209.501 166.218)" fill="url(#paint21_linear_38_670)"/>
<rect width="188.519" height="2.35649" transform="matrix(-0.728724 -0.684825 0.728724 -0.684825 212.937 162.992)" fill="url(#paint22_linear_38_670)"/>
<rect width="188.519" height="2.35649" transform="matrix(-0.728724 -0.684825 0.728724 -0.684825 216.371 159.762)" fill="url(#paint23_linear_38_670)"/>
<rect width="188.519" height="2.35649" transform="matrix(-0.728724 -0.684825 0.728724 -0.684825 219.805 156.537)" fill="url(#paint24_linear_38_670)"/>
<rect width="188.519" height="2.35649" transform="matrix(-0.728724 -0.684825 0.728724 -0.684825 223.239 153.31)" fill="url(#paint25_linear_38_670)"/>
<rect width="188.519" height="2.35649" transform="matrix(-0.728724 -0.684825 0.728724 -0.684825 226.675 150.081)" fill="url(#paint26_linear_38_670)"/>
<rect width="188.519" height="2.35649" transform="matrix(-0.728724 -0.684825 0.728724 -0.684825 230.109 146.854)" fill="url(#paint27_linear_38_670)"/>
<rect width="188.519" height="2.35649" transform="matrix(-0.728724 -0.684825 0.728724 -0.684825 233.544 143.625)" fill="url(#paint28_linear_38_670)"/>
<rect width="188.519" height="2.35649" transform="matrix(-0.728724 -0.684825 0.728724 -0.684825 236.978 140.4)" fill="url(#paint29_linear_38_670)"/>
<rect width="188.519" height="2.35649" transform="matrix(-0.728724 -0.684825 0.728724 -0.684825 240.411 137.171)" fill="url(#paint30_linear_38_670)"/>
<rect width="188.519" height="2.35649" transform="matrix(-0.728724 -0.684825 0.728724 -0.684825 243.846 133.943)" fill="url(#paint31_linear_38_670)"/>
<rect width="188.519" height="2.35649" transform="matrix(-0.728724 -0.684825 0.728724 -0.684825 247.281 130.716)" fill="url(#paint32_linear_38_670)"/>
<defs>
<linearGradient id="paint0_linear_38_670" x1="186.162" y1="5.27661e-08" x2="186.106" y2="4.29386" gradientUnits="userSpaceOnUse">
<stop stop-color="#EF7D00"/>
<stop offset="1" stop-color="white" stop-opacity="0"/>
</linearGradient>
<linearGradient id="paint1_linear_38_670" x1="186.162" y1="5.27661e-08" x2="186.106" y2="4.29386" gradientUnits="userSpaceOnUse">
<stop stop-color="#EF7D00"/>
<stop offset="1" stop-color="white" stop-opacity="0"/>
</linearGradient>
<linearGradient id="paint2_linear_38_670" x1="186.162" y1="5.27661e-08" x2="186.106" y2="4.29386" gradientUnits="userSpaceOnUse">
<stop stop-color="#EF7D00"/>
<stop offset="1" stop-color="white" stop-opacity="0"/>
</linearGradient>
<linearGradient id="paint3_linear_38_670" x1="186.162" y1="5.27661e-08" x2="186.106" y2="4.29386" gradientUnits="userSpaceOnUse">
<stop stop-color="#EF7D00"/>
<stop offset="1" stop-color="white" stop-opacity="0"/>
</linearGradient>
<linearGradient id="paint4_linear_38_670" x1="186.162" y1="5.27661e-08" x2="186.106" y2="4.29386" gradientUnits="userSpaceOnUse">
<stop stop-color="#EF7D00"/>
<stop offset="1" stop-color="white" stop-opacity="0"/>
</linearGradient>
<linearGradient id="paint5_linear_38_670" x1="186.162" y1="5.27661e-08" x2="186.106" y2="4.29386" gradientUnits="userSpaceOnUse">
<stop stop-color="#EF7D00"/>
<stop offset="1" stop-color="white" stop-opacity="0"/>
</linearGradient>
<linearGradient id="paint6_linear_38_670" x1="186.162" y1="5.27661e-08" x2="186.106" y2="4.29386" gradientUnits="userSpaceOnUse">
<stop stop-color="#EF7D00"/>
<stop offset="1" stop-color="white" stop-opacity="0"/>
</linearGradient>
<linearGradient id="paint7_linear_38_670" x1="186.162" y1="5.27661e-08" x2="186.106" y2="4.29386" gradientUnits="userSpaceOnUse">
<stop stop-color="#EF7D00"/>
<stop offset="1" stop-color="white" stop-opacity="0"/>
</linearGradient>
<linearGradient id="paint8_linear_38_670" x1="186.162" y1="5.27661e-08" x2="186.106" y2="4.29386" gradientUnits="userSpaceOnUse">
<stop stop-color="#EF7D00"/>
<stop offset="1" stop-color="white" stop-opacity="0"/>
</linearGradient>
<linearGradient id="paint9_linear_38_670" x1="186.162" y1="5.27661e-08" x2="186.106" y2="4.29386" gradientUnits="userSpaceOnUse">
<stop stop-color="#EF7D00"/>
<stop offset="1" stop-color="white" stop-opacity="0"/>
</linearGradient>
<linearGradient id="paint10_linear_38_670" x1="186.162" y1="5.27661e-08" x2="186.106" y2="4.29386" gradientUnits="userSpaceOnUse">
<stop stop-color="#EF7D00"/>
<stop offset="1" stop-color="white" stop-opacity="0"/>
</linearGradient>
<linearGradient id="paint11_linear_38_670" x1="186.162" y1="5.27661e-08" x2="186.106" y2="4.29386" gradientUnits="userSpaceOnUse">
<stop stop-color="#EF7D00"/>
<stop offset="1" stop-color="white" stop-opacity="0"/>
</linearGradient>
<linearGradient id="paint12_linear_38_670" x1="186.162" y1="5.27661e-08" x2="186.106" y2="4.29386" gradientUnits="userSpaceOnUse">
<stop stop-color="#EF7D00"/>
<stop offset="1" stop-color="white" stop-opacity="0"/>
</linearGradient>
<linearGradient id="paint13_linear_38_670" x1="186.162" y1="5.27661e-08" x2="186.106" y2="4.29386" gradientUnits="userSpaceOnUse">
<stop stop-color="#EF7D00"/>
<stop offset="1" stop-color="white" stop-opacity="0"/>
</linearGradient>
<linearGradient id="paint14_linear_38_670" x1="186.162" y1="5.27661e-08" x2="186.106" y2="4.29386" gradientUnits="userSpaceOnUse">
<stop stop-color="#EF7D00"/>
<stop offset="1" stop-color="white" stop-opacity="0"/>
</linearGradient>
<linearGradient id="paint15_linear_38_670" x1="186.162" y1="5.27661e-08" x2="186.106" y2="4.29386" gradientUnits="userSpaceOnUse">
<stop stop-color="#EF7D00"/>
<stop offset="1" stop-color="white" stop-opacity="0"/>
</linearGradient>
<linearGradient id="paint16_linear_38_670" x1="186.162" y1="5.27661e-08" x2="186.106" y2="4.29386" gradientUnits="userSpaceOnUse">
<stop stop-color="#EF7D00"/>
<stop offset="1" stop-color="white" stop-opacity="0"/>
</linearGradient>
<linearGradient id="paint17_linear_38_670" x1="186.162" y1="5.27661e-08" x2="186.106" y2="4.29386" gradientUnits="userSpaceOnUse">
<stop stop-color="#EF7D00"/>
<stop offset="1" stop-color="white" stop-opacity="0"/>
</linearGradient>
<linearGradient id="paint18_linear_38_670" x1="186.162" y1="5.27661e-08" x2="186.106" y2="4.29386" gradientUnits="userSpaceOnUse">
<stop stop-color="#EF7D00"/>
<stop offset="1" stop-color="white" stop-opacity="0"/>
</linearGradient>
<linearGradient id="paint19_linear_38_670" x1="186.162" y1="5.27661e-08" x2="186.106" y2="4.29386" gradientUnits="userSpaceOnUse">
<stop stop-color="#EF7D00"/>
<stop offset="1" stop-color="white" stop-opacity="0"/>
</linearGradient>
<linearGradient id="paint20_linear_38_670" x1="186.162" y1="5.27661e-08" x2="186.106" y2="4.29386" gradientUnits="userSpaceOnUse">
<stop stop-color="#EF7D00"/>
<stop offset="1" stop-color="white" stop-opacity="0"/>
</linearGradient>
<linearGradient id="paint21_linear_38_670" x1="186.162" y1="5.27661e-08" x2="186.106" y2="4.29386" gradientUnits="userSpaceOnUse">
<stop stop-color="#EF7D00"/>
<stop offset="1" stop-color="white" stop-opacity="0"/>
</linearGradient>
<linearGradient id="paint22_linear_38_670" x1="186.162" y1="5.27661e-08" x2="186.106" y2="4.29386" gradientUnits="userSpaceOnUse">
<stop stop-color="#EF7D00"/>
<stop offset="1" stop-color="white" stop-opacity="0"/>
</linearGradient>
<linearGradient id="paint23_linear_38_670" x1="186.162" y1="5.27661e-08" x2="186.106" y2="4.29386" gradientUnits="userSpaceOnUse">
<stop stop-color="#EF7D00"/>
<stop offset="1" stop-color="white" stop-opacity="0"/>
</linearGradient>
<linearGradient id="paint24_linear_38_670" x1="186.162" y1="5.27661e-08" x2="186.106" y2="4.29386" gradientUnits="userSpaceOnUse">
<stop stop-color="#EF7D00"/>
<stop offset="1" stop-color="white" stop-opacity="0"/>
</linearGradient>
<linearGradient id="paint25_linear_38_670" x1="186.162" y1="5.27661e-08" x2="186.106" y2="4.29386" gradientUnits="userSpaceOnUse">
<stop stop-color="#EF7D00"/>
<stop offset="1" stop-color="white" stop-opacity="0"/>
</linearGradient>
<linearGradient id="paint26_linear_38_670" x1="186.162" y1="5.27661e-08" x2="186.106" y2="4.29386" gradientUnits="userSpaceOnUse">
<stop stop-color="#EF7D00"/>
<stop offset="1" stop-color="white" stop-opacity="0"/>
</linearGradient>
<linearGradient id="paint27_linear_38_670" x1="186.162" y1="5.27661e-08" x2="186.106" y2="4.29386" gradientUnits="userSpaceOnUse">
<stop stop-color="#EF7D00"/>
<stop offset="1" stop-color="white" stop-opacity="0"/>
</linearGradient>
<linearGradient id="paint28_linear_38_670" x1="186.162" y1="5.27661e-08" x2="186.106" y2="4.29386" gradientUnits="userSpaceOnUse">
<stop stop-color="#EF7D00"/>
<stop offset="1" stop-color="white" stop-opacity="0"/>
</linearGradient>
<linearGradient id="paint29_linear_38_670" x1="186.162" y1="5.27661e-08" x2="186.106" y2="4.29386" gradientUnits="userSpaceOnUse">
<stop stop-color="#EF7D00"/>
<stop offset="1" stop-color="white" stop-opacity="0"/>
</linearGradient>
<linearGradient id="paint30_linear_38_670" x1="186.162" y1="5.27661e-08" x2="186.106" y2="4.29386" gradientUnits="userSpaceOnUse">
<stop stop-color="#EF7D00"/>
<stop offset="1" stop-color="white" stop-opacity="0"/>
</linearGradient>
<linearGradient id="paint31_linear_38_670" x1="186.162" y1="5.27661e-08" x2="186.106" y2="4.29386" gradientUnits="userSpaceOnUse">
<stop stop-color="#EF7D00"/>
<stop offset="1" stop-color="white" stop-opacity="0"/>
</linearGradient>
<linearGradient id="paint32_linear_38_670" x1="186.162" y1="5.27661e-08" x2="186.106" y2="4.29386" gradientUnits="userSpaceOnUse">
<stop stop-color="#EF7D00"/>
<stop offset="1" stop-color="white" stop-opacity="0"/>
</linearGradient>
</defs>
</svg>
