<svg width="94" height="86" viewBox="0 0 94 86" fill="none" xmlns="http://www.w3.org/2000/svg">
<rect width="70.291" height="0.878638" transform="matrix(0.73782 -0.675027 0.73782 0.675027 0 47.4484)" fill="url(#paint0_linear_38_840)"/>
<rect width="70.291" height="0.878638" transform="matrix(0.73782 -0.675027 0.73782 0.675027 1.29666 48.6343)" fill="url(#paint1_linear_38_840)"/>
<rect width="70.291" height="0.878638" transform="matrix(0.73782 -0.675027 0.73782 0.675027 2.59322 49.8196)" fill="url(#paint2_linear_38_840)"/>
<rect width="70.291" height="0.878638" transform="matrix(0.73782 -0.675027 0.73782 0.675027 3.88962 51.0064)" fill="url(#paint3_linear_38_840)"/>
<rect width="70.291" height="0.878638" transform="matrix(0.73782 -0.675027 0.73782 0.675027 5.18598 52.1924)" fill="url(#paint4_linear_38_840)"/>
<rect width="70.291" height="0.878638" transform="matrix(0.73782 -0.675027 0.73782 0.675027 6.48254 53.3792)" fill="url(#paint5_linear_38_840)"/>
<rect width="70.291" height="0.878638" transform="matrix(0.73782 -0.675027 0.73782 0.675027 7.77935 54.5653)" fill="url(#paint6_linear_38_840)"/>
<rect width="70.291" height="0.878638" transform="matrix(0.73782 -0.675027 0.73782 0.675027 9.07571 55.7516)" fill="url(#paint7_linear_38_840)"/>
<rect width="70.291" height="0.878638" transform="matrix(0.73782 -0.675027 0.73782 0.675027 10.3723 56.9374)" fill="url(#paint8_linear_38_840)"/>
<rect width="70.291" height="0.878638" transform="matrix(0.73782 -0.675027 0.73782 0.675027 11.6687 58.1235)" fill="url(#paint9_linear_38_840)"/>
<rect width="70.291" height="0.878638" transform="matrix(0.73782 -0.675027 0.73782 0.675027 12.9654 59.3103)" fill="url(#paint10_linear_38_840)"/>
<rect width="70.291" height="0.878638" transform="matrix(0.73782 -0.675027 0.73782 0.675027 14.262 60.4961)" fill="url(#paint11_linear_38_840)"/>
<rect width="70.291" height="0.878638" transform="matrix(0.73782 -0.675027 0.73782 0.675027 15.5586 61.6824)" fill="url(#paint12_linear_38_840)"/>
<rect width="70.291" height="0.878638" transform="matrix(0.73782 -0.675027 0.73782 0.675027 16.8552 62.8684)" fill="url(#paint13_linear_38_840)"/>
<rect width="70.291" height="0.878638" transform="matrix(0.73782 -0.675027 0.73782 0.675027 18.1518 64.0552)" fill="url(#paint14_linear_38_840)"/>
<rect width="70.291" height="0.878638" transform="matrix(0.73782 -0.675027 0.73782 0.675027 19.4486 65.2405)" fill="url(#paint15_linear_38_840)"/>
<rect width="70.291" height="0.878638" transform="matrix(0.73782 -0.675027 0.73782 0.675027 20.745 66.4271)" fill="url(#paint16_linear_38_840)"/>
<rect width="70.291" height="0.878638" transform="matrix(0.73782 -0.675027 0.73782 0.675027 22.0415 67.6139)" fill="url(#paint17_linear_38_840)"/>
<rect width="70.291" height="0.878638" transform="matrix(0.73782 -0.675027 0.73782 0.675027 23.3381 68.7999)" fill="url(#paint18_linear_38_840)"/>
<rect width="70.291" height="0.878638" transform="matrix(0.73782 -0.675027 0.73782 0.675027 24.6345 69.9862)" fill="url(#paint19_linear_38_840)"/>
<rect width="70.291" height="0.878638" transform="matrix(0.73782 -0.675027 0.73782 0.675027 25.9308 71.1723)" fill="url(#paint20_linear_38_840)"/>
<rect width="70.291" height="0.878638" transform="matrix(0.73782 -0.675027 0.73782 0.675027 27.2274 72.3581)" fill="url(#paint21_linear_38_840)"/>
<rect width="70.291" height="0.878638" transform="matrix(0.73782 -0.675027 0.73782 0.675027 28.524 73.5449)" fill="url(#paint22_linear_38_840)"/>
<rect width="70.291" height="0.878638" transform="matrix(0.73782 -0.675027 0.73782 0.675027 29.8208 74.731)" fill="url(#paint23_linear_38_840)"/>
<rect width="70.291" height="0.878638" transform="matrix(0.73782 -0.675027 0.73782 0.675027 31.1172 75.9173)" fill="url(#paint24_linear_38_840)"/>
<rect width="70.291" height="0.878638" transform="matrix(0.73782 -0.675027 0.73782 0.675027 32.4137 77.1031)" fill="url(#paint25_linear_38_840)"/>
<rect width="70.291" height="0.878638" transform="matrix(0.73782 -0.675027 0.73782 0.675027 33.7101 78.2891)" fill="url(#paint26_linear_38_840)"/>
<rect width="70.291" height="0.878638" transform="matrix(0.73782 -0.675027 0.73782 0.675027 35.0069 79.4759)" fill="url(#paint27_linear_38_840)"/>
<rect width="70.291" height="0.878638" transform="matrix(0.73782 -0.675027 0.73782 0.675027 36.3035 80.662)" fill="url(#paint28_linear_38_840)"/>
<rect width="70.291" height="0.878638" transform="matrix(0.73782 -0.675027 0.73782 0.675027 37.5997 81.8483)" fill="url(#paint29_linear_38_840)"/>
<rect width="70.291" height="0.878638" transform="matrix(0.73782 -0.675027 0.73782 0.675027 38.8964 83.0348)" fill="url(#paint30_linear_38_840)"/>
<rect width="70.291" height="0.878638" transform="matrix(0.73782 -0.675027 0.73782 0.675027 40.193 84.2202)" fill="url(#paint31_linear_38_840)"/>
<rect width="70.291" height="0.878638" transform="matrix(0.73782 -0.675027 0.73782 0.675027 41.4896 85.407)" fill="url(#paint32_linear_38_840)"/>
<defs>
<linearGradient id="paint0_linear_38_840" x1="2.1966" y1="0.00675873" x2="2.23558" y2="2.11019" gradientUnits="userSpaceOnUse">
<stop stop-color="#3F72AF"/>
<stop offset="1" stop-color="white" stop-opacity="0"/>
</linearGradient>
<linearGradient id="paint1_linear_38_840" x1="2.1966" y1="0.00675873" x2="2.23558" y2="2.11019" gradientUnits="userSpaceOnUse">
<stop stop-color="#3F72AF"/>
<stop offset="1" stop-color="white" stop-opacity="0"/>
</linearGradient>
<linearGradient id="paint2_linear_38_840" x1="2.1966" y1="0.00675873" x2="2.23558" y2="2.11019" gradientUnits="userSpaceOnUse">
<stop stop-color="#3F72AF"/>
<stop offset="1" stop-color="white" stop-opacity="0"/>
</linearGradient>
<linearGradient id="paint3_linear_38_840" x1="2.1966" y1="0.00675873" x2="2.23558" y2="2.11019" gradientUnits="userSpaceOnUse">
<stop stop-color="#3F72AF"/>
<stop offset="1" stop-color="white" stop-opacity="0"/>
</linearGradient>
<linearGradient id="paint4_linear_38_840" x1="2.1966" y1="0.00675873" x2="2.23558" y2="2.11019" gradientUnits="userSpaceOnUse">
<stop stop-color="#3F72AF"/>
<stop offset="1" stop-color="white" stop-opacity="0"/>
</linearGradient>
<linearGradient id="paint5_linear_38_840" x1="2.1966" y1="0.00675873" x2="2.23558" y2="2.11019" gradientUnits="userSpaceOnUse">
<stop stop-color="#3F72AF"/>
<stop offset="1" stop-color="white" stop-opacity="0"/>
</linearGradient>
<linearGradient id="paint6_linear_38_840" x1="2.1966" y1="0.00675873" x2="2.23558" y2="2.11019" gradientUnits="userSpaceOnUse">
<stop stop-color="#3F72AF"/>
<stop offset="1" stop-color="white" stop-opacity="0"/>
</linearGradient>
<linearGradient id="paint7_linear_38_840" x1="2.1966" y1="0.00675873" x2="2.23558" y2="2.11019" gradientUnits="userSpaceOnUse">
<stop stop-color="#3F72AF"/>
<stop offset="1" stop-color="white" stop-opacity="0"/>
</linearGradient>
<linearGradient id="paint8_linear_38_840" x1="2.1966" y1="0.00675873" x2="2.23558" y2="2.11019" gradientUnits="userSpaceOnUse">
<stop stop-color="#3F72AF"/>
<stop offset="1" stop-color="white" stop-opacity="0"/>
</linearGradient>
<linearGradient id="paint9_linear_38_840" x1="2.1966" y1="0.00675873" x2="2.23558" y2="2.11019" gradientUnits="userSpaceOnUse">
<stop stop-color="#3F72AF"/>
<stop offset="1" stop-color="white" stop-opacity="0"/>
</linearGradient>
<linearGradient id="paint10_linear_38_840" x1="2.1966" y1="0.00675873" x2="2.23558" y2="2.11019" gradientUnits="userSpaceOnUse">
<stop stop-color="#3F72AF"/>
<stop offset="1" stop-color="white" stop-opacity="0"/>
</linearGradient>
<linearGradient id="paint11_linear_38_840" x1="2.1966" y1="0.00675873" x2="2.23558" y2="2.11019" gradientUnits="userSpaceOnUse">
<stop stop-color="#3F72AF"/>
<stop offset="1" stop-color="white" stop-opacity="0"/>
</linearGradient>
<linearGradient id="paint12_linear_38_840" x1="2.1966" y1="0.00675873" x2="2.23558" y2="2.11019" gradientUnits="userSpaceOnUse">
<stop stop-color="#3F72AF"/>
<stop offset="1" stop-color="white" stop-opacity="0"/>
</linearGradient>
<linearGradient id="paint13_linear_38_840" x1="2.1966" y1="0.00675873" x2="2.23558" y2="2.11019" gradientUnits="userSpaceOnUse">
<stop stop-color="#3F72AF"/>
<stop offset="1" stop-color="white" stop-opacity="0"/>
</linearGradient>
<linearGradient id="paint14_linear_38_840" x1="2.1966" y1="0.00675873" x2="2.23558" y2="2.11019" gradientUnits="userSpaceOnUse">
<stop stop-color="#3F72AF"/>
<stop offset="1" stop-color="white" stop-opacity="0"/>
</linearGradient>
<linearGradient id="paint15_linear_38_840" x1="2.1966" y1="0.00675873" x2="2.23558" y2="2.11019" gradientUnits="userSpaceOnUse">
<stop stop-color="#3F72AF"/>
<stop offset="1" stop-color="white" stop-opacity="0"/>
</linearGradient>
<linearGradient id="paint16_linear_38_840" x1="2.1966" y1="0.00675873" x2="2.23558" y2="2.11019" gradientUnits="userSpaceOnUse">
<stop stop-color="#3F72AF"/>
<stop offset="1" stop-color="white" stop-opacity="0"/>
</linearGradient>
<linearGradient id="paint17_linear_38_840" x1="2.1966" y1="0.00675873" x2="2.23558" y2="2.11019" gradientUnits="userSpaceOnUse">
<stop stop-color="#3F72AF"/>
<stop offset="1" stop-color="white" stop-opacity="0"/>
</linearGradient>
<linearGradient id="paint18_linear_38_840" x1="2.1966" y1="0.00675873" x2="2.23558" y2="2.11019" gradientUnits="userSpaceOnUse">
<stop stop-color="#3F72AF"/>
<stop offset="1" stop-color="white" stop-opacity="0"/>
</linearGradient>
<linearGradient id="paint19_linear_38_840" x1="2.1966" y1="0.00675873" x2="2.23558" y2="2.11019" gradientUnits="userSpaceOnUse">
<stop stop-color="#3F72AF"/>
<stop offset="1" stop-color="white" stop-opacity="0"/>
</linearGradient>
<linearGradient id="paint20_linear_38_840" x1="2.1966" y1="0.00675873" x2="2.23558" y2="2.11019" gradientUnits="userSpaceOnUse">
<stop stop-color="#3F72AF"/>
<stop offset="1" stop-color="white" stop-opacity="0"/>
</linearGradient>
<linearGradient id="paint21_linear_38_840" x1="2.1966" y1="0.00675873" x2="2.23558" y2="2.11019" gradientUnits="userSpaceOnUse">
<stop stop-color="#3F72AF"/>
<stop offset="1" stop-color="white" stop-opacity="0"/>
</linearGradient>
<linearGradient id="paint22_linear_38_840" x1="2.1966" y1="0.00675873" x2="2.23558" y2="2.11019" gradientUnits="userSpaceOnUse">
<stop stop-color="#3F72AF"/>
<stop offset="1" stop-color="white" stop-opacity="0"/>
</linearGradient>
<linearGradient id="paint23_linear_38_840" x1="2.1966" y1="0.00675873" x2="2.23558" y2="2.11019" gradientUnits="userSpaceOnUse">
<stop stop-color="#3F72AF"/>
<stop offset="1" stop-color="white" stop-opacity="0"/>
</linearGradient>
<linearGradient id="paint24_linear_38_840" x1="2.1966" y1="0.00675873" x2="2.23558" y2="2.11019" gradientUnits="userSpaceOnUse">
<stop stop-color="#3F72AF"/>
<stop offset="1" stop-color="white" stop-opacity="0"/>
</linearGradient>
<linearGradient id="paint25_linear_38_840" x1="2.1966" y1="0.00675873" x2="2.23558" y2="2.11019" gradientUnits="userSpaceOnUse">
<stop stop-color="#3F72AF"/>
<stop offset="1" stop-color="white" stop-opacity="0"/>
</linearGradient>
<linearGradient id="paint26_linear_38_840" x1="2.1966" y1="0.00675873" x2="2.23558" y2="2.11019" gradientUnits="userSpaceOnUse">
<stop stop-color="#3F72AF"/>
<stop offset="1" stop-color="white" stop-opacity="0"/>
</linearGradient>
<linearGradient id="paint27_linear_38_840" x1="2.1966" y1="0.00675873" x2="2.23558" y2="2.11019" gradientUnits="userSpaceOnUse">
<stop stop-color="#3F72AF"/>
<stop offset="1" stop-color="white" stop-opacity="0"/>
</linearGradient>
<linearGradient id="paint28_linear_38_840" x1="2.1966" y1="0.00675873" x2="2.23558" y2="2.11019" gradientUnits="userSpaceOnUse">
<stop stop-color="#3F72AF"/>
<stop offset="1" stop-color="white" stop-opacity="0"/>
</linearGradient>
<linearGradient id="paint29_linear_38_840" x1="2.1966" y1="0.00675873" x2="2.23558" y2="2.11019" gradientUnits="userSpaceOnUse">
<stop stop-color="#3F72AF"/>
<stop offset="1" stop-color="white" stop-opacity="0"/>
</linearGradient>
<linearGradient id="paint30_linear_38_840" x1="2.1966" y1="0.00675873" x2="2.23558" y2="2.11019" gradientUnits="userSpaceOnUse">
<stop stop-color="#3F72AF"/>
<stop offset="1" stop-color="white" stop-opacity="0"/>
</linearGradient>
<linearGradient id="paint31_linear_38_840" x1="2.1966" y1="0.00675873" x2="2.23558" y2="2.11019" gradientUnits="userSpaceOnUse">
<stop stop-color="#3F72AF"/>
<stop offset="1" stop-color="white" stop-opacity="0"/>
</linearGradient>
<linearGradient id="paint32_linear_38_840" x1="2.1966" y1="0.00675873" x2="2.23558" y2="2.11019" gradientUnits="userSpaceOnUse">
<stop stop-color="#3F72AF"/>
<stop offset="1" stop-color="white" stop-opacity="0"/>
</linearGradient>
</defs>
</svg>
