<svg width="94" height="86" viewBox="0 0 94 86" fill="none" xmlns="http://www.w3.org/2000/svg">
<rect width="70.291" height="0.878638" transform="matrix(-0.737814 -0.675021 0.737814 -0.675021 51.8617 86)" fill="url(#paint0_linear_38_874)"/>
<rect width="70.291" height="0.878638" transform="matrix(-0.737814 -0.675021 0.737814 -0.675021 53.1582 84.8135)" fill="url(#paint1_linear_38_874)"/>
<rect width="70.291" height="0.878638" transform="matrix(-0.737814 -0.675021 0.737814 -0.675021 54.4548 83.6272)" fill="url(#paint2_linear_38_874)"/>
<rect width="70.291" height="0.878638" transform="matrix(-0.737814 -0.675021 0.737814 -0.675021 55.7514 82.4406)" fill="url(#paint3_linear_38_874)"/>
<rect width="70.291" height="0.878638" transform="matrix(-0.737814 -0.675021 0.737814 -0.675021 57.048 81.2546)" fill="url(#paint4_linear_38_874)"/>
<rect width="70.291" height="0.878638" transform="matrix(-0.737814 -0.675021 0.737814 -0.675021 58.3439 80.0685)" fill="url(#paint5_linear_38_874)"/>
<rect width="70.291" height="0.878638" transform="matrix(-0.737814 -0.675021 0.737814 -0.675021 59.6411 78.8827)" fill="url(#paint6_linear_38_874)"/>
<rect width="70.291" height="0.878638" transform="matrix(-0.737814 -0.675021 0.737814 -0.675021 60.9373 77.6964)" fill="url(#paint7_linear_38_874)"/>
<rect width="70.291" height="0.878638" transform="matrix(-0.737814 -0.675021 0.737814 -0.675021 62.2338 76.5097)" fill="url(#paint8_linear_38_874)"/>
<rect width="70.291" height="0.878638" transform="matrix(-0.737814 -0.675021 0.737814 -0.675021 63.5308 75.3236)" fill="url(#paint9_linear_38_874)"/>
<rect width="70.291" height="0.878638" transform="matrix(-0.737814 -0.675021 0.737814 -0.675021 64.8268 74.1376)" fill="url(#paint10_linear_38_874)"/>
<rect width="70.291" height="0.878638" transform="matrix(-0.737814 -0.675021 0.737814 -0.675021 66.1235 72.9518)" fill="url(#paint11_linear_38_874)"/>
<rect width="70.291" height="0.878638" transform="matrix(-0.737814 -0.675021 0.737814 -0.675021 67.4201 71.7655)" fill="url(#paint12_linear_38_874)"/>
<rect width="70.291" height="0.878638" transform="matrix(-0.737814 -0.675021 0.737814 -0.675021 68.7171 70.5779)" fill="url(#paint13_linear_38_874)"/>
<rect width="70.291" height="0.878638" transform="matrix(-0.737814 -0.675021 0.737814 -0.675021 70.0132 69.3926)" fill="url(#paint14_linear_38_874)"/>
<rect width="70.291" height="0.878638" transform="matrix(-0.737814 -0.675021 0.737814 -0.675021 71.3098 68.2066)" fill="url(#paint15_linear_38_874)"/>
<rect width="70.291" height="0.878638" transform="matrix(-0.737814 -0.675021 0.737814 -0.675021 72.6064 67.0208)" fill="url(#paint16_linear_38_874)"/>
<rect width="70.291" height="0.878638" transform="matrix(-0.737814 -0.675021 0.737814 -0.675021 73.9029 65.8338)" fill="url(#paint17_linear_38_874)"/>
<rect width="70.291" height="0.878638" transform="matrix(-0.737814 -0.675021 0.737814 -0.675021 75.1993 64.647)" fill="url(#paint18_linear_38_874)"/>
<rect width="70.291" height="0.878638" transform="matrix(-0.737814 -0.675021 0.737814 -0.675021 76.4957 63.4626)" fill="url(#paint19_linear_38_874)"/>
<rect width="70.291" height="0.878638" transform="matrix(-0.737814 -0.675021 0.737814 -0.675021 77.7921 62.2759)" fill="url(#paint20_linear_38_874)"/>
<rect width="70.291" height="0.878638" transform="matrix(-0.737814 -0.675021 0.737814 -0.675021 79.0888 61.0888)" fill="url(#paint21_linear_38_874)"/>
<rect width="70.291" height="0.878638" transform="matrix(-0.737814 -0.675021 0.737814 -0.675021 80.3858 59.903)" fill="url(#paint22_linear_38_874)"/>
<rect width="70.291" height="0.878638" transform="matrix(-0.737814 -0.675021 0.737814 -0.675021 81.6824 58.716)" fill="url(#paint23_linear_38_874)"/>
<rect width="70.291" height="0.878638" transform="matrix(-0.737814 -0.675021 0.737814 -0.675021 82.9785 57.5307)" fill="url(#paint24_linear_38_874)"/>
<rect width="70.291" height="0.878638" transform="matrix(-0.737814 -0.675021 0.737814 -0.675021 84.2751 56.3449)" fill="url(#paint25_linear_38_874)"/>
<rect width="70.291" height="0.878638" transform="matrix(-0.737814 -0.675021 0.737814 -0.675021 85.5721 55.1579)" fill="url(#paint26_linear_38_874)"/>
<rect width="70.291" height="0.878638" transform="matrix(-0.737814 -0.675021 0.737814 -0.675021 86.8686 53.972)" fill="url(#paint27_linear_38_874)"/>
<rect width="70.291" height="0.878638" transform="matrix(-0.737814 -0.675021 0.737814 -0.675021 88.1654 52.7853)" fill="url(#paint28_linear_38_874)"/>
<rect width="70.291" height="0.878638" transform="matrix(-0.737814 -0.675021 0.737814 -0.675021 89.4616 51.6)" fill="url(#paint29_linear_38_874)"/>
<rect width="70.291" height="0.878638" transform="matrix(-0.737814 -0.675021 0.737814 -0.675021 90.7577 50.4132)" fill="url(#paint30_linear_38_874)"/>
<rect width="70.291" height="0.878638" transform="matrix(-0.737814 -0.675021 0.737814 -0.675021 92.0545 49.2269)" fill="url(#paint31_linear_38_874)"/>
<rect width="70.291" height="0.878638" transform="matrix(-0.737814 -0.675021 0.737814 -0.675021 93.3511 48.0411)" fill="url(#paint32_linear_38_874)"/>
<defs>
<linearGradient id="paint0_linear_38_874" x1="69.4124" y1="1.96743e-08" x2="69.3914" y2="1.60101" gradientUnits="userSpaceOnUse">
<stop stop-color="#EF7D00"/>
<stop offset="1" stop-color="white" stop-opacity="0"/>
</linearGradient>
<linearGradient id="paint1_linear_38_874" x1="69.4124" y1="1.96743e-08" x2="69.3914" y2="1.60101" gradientUnits="userSpaceOnUse">
<stop stop-color="#EF7D00"/>
<stop offset="1" stop-color="white" stop-opacity="0"/>
</linearGradient>
<linearGradient id="paint2_linear_38_874" x1="69.4124" y1="1.96743e-08" x2="69.3914" y2="1.60101" gradientUnits="userSpaceOnUse">
<stop stop-color="#EF7D00"/>
<stop offset="1" stop-color="white" stop-opacity="0"/>
</linearGradient>
<linearGradient id="paint3_linear_38_874" x1="69.4124" y1="1.96743e-08" x2="69.3914" y2="1.60101" gradientUnits="userSpaceOnUse">
<stop stop-color="#EF7D00"/>
<stop offset="1" stop-color="white" stop-opacity="0"/>
</linearGradient>
<linearGradient id="paint4_linear_38_874" x1="69.4124" y1="1.96743e-08" x2="69.3914" y2="1.60101" gradientUnits="userSpaceOnUse">
<stop stop-color="#EF7D00"/>
<stop offset="1" stop-color="white" stop-opacity="0"/>
</linearGradient>
<linearGradient id="paint5_linear_38_874" x1="69.4124" y1="1.96743e-08" x2="69.3914" y2="1.60101" gradientUnits="userSpaceOnUse">
<stop stop-color="#EF7D00"/>
<stop offset="1" stop-color="white" stop-opacity="0"/>
</linearGradient>
<linearGradient id="paint6_linear_38_874" x1="69.4124" y1="1.96743e-08" x2="69.3914" y2="1.60101" gradientUnits="userSpaceOnUse">
<stop stop-color="#EF7D00"/>
<stop offset="1" stop-color="white" stop-opacity="0"/>
</linearGradient>
<linearGradient id="paint7_linear_38_874" x1="69.4124" y1="1.96743e-08" x2="69.3914" y2="1.60101" gradientUnits="userSpaceOnUse">
<stop stop-color="#EF7D00"/>
<stop offset="1" stop-color="white" stop-opacity="0"/>
</linearGradient>
<linearGradient id="paint8_linear_38_874" x1="69.4124" y1="1.96743e-08" x2="69.3914" y2="1.60101" gradientUnits="userSpaceOnUse">
<stop stop-color="#EF7D00"/>
<stop offset="1" stop-color="white" stop-opacity="0"/>
</linearGradient>
<linearGradient id="paint9_linear_38_874" x1="69.4124" y1="1.96743e-08" x2="69.3914" y2="1.60101" gradientUnits="userSpaceOnUse">
<stop stop-color="#EF7D00"/>
<stop offset="1" stop-color="white" stop-opacity="0"/>
</linearGradient>
<linearGradient id="paint10_linear_38_874" x1="69.4124" y1="1.96743e-08" x2="69.3914" y2="1.60101" gradientUnits="userSpaceOnUse">
<stop stop-color="#EF7D00"/>
<stop offset="1" stop-color="white" stop-opacity="0"/>
</linearGradient>
<linearGradient id="paint11_linear_38_874" x1="69.4124" y1="1.96743e-08" x2="69.3914" y2="1.60101" gradientUnits="userSpaceOnUse">
<stop stop-color="#EF7D00"/>
<stop offset="1" stop-color="white" stop-opacity="0"/>
</linearGradient>
<linearGradient id="paint12_linear_38_874" x1="69.4124" y1="1.96743e-08" x2="69.3914" y2="1.60101" gradientUnits="userSpaceOnUse">
<stop stop-color="#EF7D00"/>
<stop offset="1" stop-color="white" stop-opacity="0"/>
</linearGradient>
<linearGradient id="paint13_linear_38_874" x1="69.4124" y1="1.96743e-08" x2="69.3914" y2="1.60101" gradientUnits="userSpaceOnUse">
<stop stop-color="#EF7D00"/>
<stop offset="1" stop-color="white" stop-opacity="0"/>
</linearGradient>
<linearGradient id="paint14_linear_38_874" x1="69.4124" y1="1.96743e-08" x2="69.3914" y2="1.60101" gradientUnits="userSpaceOnUse">
<stop stop-color="#EF7D00"/>
<stop offset="1" stop-color="white" stop-opacity="0"/>
</linearGradient>
<linearGradient id="paint15_linear_38_874" x1="69.4124" y1="1.96743e-08" x2="69.3914" y2="1.60101" gradientUnits="userSpaceOnUse">
<stop stop-color="#EF7D00"/>
<stop offset="1" stop-color="white" stop-opacity="0"/>
</linearGradient>
<linearGradient id="paint16_linear_38_874" x1="69.4124" y1="1.96743e-08" x2="69.3914" y2="1.60101" gradientUnits="userSpaceOnUse">
<stop stop-color="#EF7D00"/>
<stop offset="1" stop-color="white" stop-opacity="0"/>
</linearGradient>
<linearGradient id="paint17_linear_38_874" x1="69.4124" y1="1.96743e-08" x2="69.3914" y2="1.60101" gradientUnits="userSpaceOnUse">
<stop stop-color="#EF7D00"/>
<stop offset="1" stop-color="white" stop-opacity="0"/>
</linearGradient>
<linearGradient id="paint18_linear_38_874" x1="69.4124" y1="1.96743e-08" x2="69.3914" y2="1.60101" gradientUnits="userSpaceOnUse">
<stop stop-color="#EF7D00"/>
<stop offset="1" stop-color="white" stop-opacity="0"/>
</linearGradient>
<linearGradient id="paint19_linear_38_874" x1="69.4124" y1="1.96743e-08" x2="69.3914" y2="1.60101" gradientUnits="userSpaceOnUse">
<stop stop-color="#EF7D00"/>
<stop offset="1" stop-color="white" stop-opacity="0"/>
</linearGradient>
<linearGradient id="paint20_linear_38_874" x1="69.4124" y1="1.96743e-08" x2="69.3914" y2="1.60101" gradientUnits="userSpaceOnUse">
<stop stop-color="#EF7D00"/>
<stop offset="1" stop-color="white" stop-opacity="0"/>
</linearGradient>
<linearGradient id="paint21_linear_38_874" x1="69.4124" y1="1.96743e-08" x2="69.3914" y2="1.60101" gradientUnits="userSpaceOnUse">
<stop stop-color="#EF7D00"/>
<stop offset="1" stop-color="white" stop-opacity="0"/>
</linearGradient>
<linearGradient id="paint22_linear_38_874" x1="69.4124" y1="1.96743e-08" x2="69.3914" y2="1.60101" gradientUnits="userSpaceOnUse">
<stop stop-color="#EF7D00"/>
<stop offset="1" stop-color="white" stop-opacity="0"/>
</linearGradient>
<linearGradient id="paint23_linear_38_874" x1="69.4124" y1="1.96743e-08" x2="69.3914" y2="1.60101" gradientUnits="userSpaceOnUse">
<stop stop-color="#EF7D00"/>
<stop offset="1" stop-color="white" stop-opacity="0"/>
</linearGradient>
<linearGradient id="paint24_linear_38_874" x1="69.4124" y1="1.96743e-08" x2="69.3914" y2="1.60101" gradientUnits="userSpaceOnUse">
<stop stop-color="#EF7D00"/>
<stop offset="1" stop-color="white" stop-opacity="0"/>
</linearGradient>
<linearGradient id="paint25_linear_38_874" x1="69.4124" y1="1.96743e-08" x2="69.3914" y2="1.60101" gradientUnits="userSpaceOnUse">
<stop stop-color="#EF7D00"/>
<stop offset="1" stop-color="white" stop-opacity="0"/>
</linearGradient>
<linearGradient id="paint26_linear_38_874" x1="69.4124" y1="1.96743e-08" x2="69.3914" y2="1.60101" gradientUnits="userSpaceOnUse">
<stop stop-color="#EF7D00"/>
<stop offset="1" stop-color="white" stop-opacity="0"/>
</linearGradient>
<linearGradient id="paint27_linear_38_874" x1="69.4124" y1="1.96743e-08" x2="69.3914" y2="1.60101" gradientUnits="userSpaceOnUse">
<stop stop-color="#EF7D00"/>
<stop offset="1" stop-color="white" stop-opacity="0"/>
</linearGradient>
<linearGradient id="paint28_linear_38_874" x1="69.4124" y1="1.96743e-08" x2="69.3914" y2="1.60101" gradientUnits="userSpaceOnUse">
<stop stop-color="#EF7D00"/>
<stop offset="1" stop-color="white" stop-opacity="0"/>
</linearGradient>
<linearGradient id="paint29_linear_38_874" x1="69.4124" y1="1.96743e-08" x2="69.3914" y2="1.60101" gradientUnits="userSpaceOnUse">
<stop stop-color="#EF7D00"/>
<stop offset="1" stop-color="white" stop-opacity="0"/>
</linearGradient>
<linearGradient id="paint30_linear_38_874" x1="69.4124" y1="1.96743e-08" x2="69.3914" y2="1.60101" gradientUnits="userSpaceOnUse">
<stop stop-color="#EF7D00"/>
<stop offset="1" stop-color="white" stop-opacity="0"/>
</linearGradient>
<linearGradient id="paint31_linear_38_874" x1="69.4124" y1="1.96743e-08" x2="69.3914" y2="1.60101" gradientUnits="userSpaceOnUse">
<stop stop-color="#EF7D00"/>
<stop offset="1" stop-color="white" stop-opacity="0"/>
</linearGradient>
<linearGradient id="paint32_linear_38_874" x1="69.4124" y1="1.96743e-08" x2="69.3914" y2="1.60101" gradientUnits="userSpaceOnUse">
<stop stop-color="#EF7D00"/>
<stop offset="1" stop-color="white" stop-opacity="0"/>
</linearGradient>
</defs>
</svg>
